<svg id="visual" viewBox="0 0 1920 1080" width="1920" height="1080" xmlns="http://www.w3.org/2000/svg" xmlns:xlink="http://www.w3.org/1999/xlink" version="1.1"><rect x="0" y="0" width="1920" height="1080" fill="#060000"></rect><defs><linearGradient id="grad1_0" x1="43.8%" y1="100%" x2="100%" y2="0%"><stop offset="14.444444444444446%" stop-color="#bf0000" stop-opacity="1"></stop><stop offset="85.55555555555554%" stop-color="#bf0000" stop-opacity="1"></stop></linearGradient></defs><defs><linearGradient id="grad1_1" x1="43.8%" y1="100%" x2="100%" y2="0%"><stop offset="14.444444444444446%" stop-color="#bf0000" stop-opacity="1"></stop><stop offset="85.55555555555554%" stop-color="#a5020b" stop-opacity="1"></stop></linearGradient></defs><defs><linearGradient id="grad1_2" x1="43.8%" y1="100%" x2="100%" y2="0%"><stop offset="14.444444444444446%" stop-color="#8b0611" stop-opacity="1"></stop><stop offset="85.55555555555554%" stop-color="#a5020b" stop-opacity="1"></stop></linearGradient></defs><defs><linearGradient id="grad1_3" x1="43.8%" y1="100%" x2="100%" y2="0%"><stop offset="14.444444444444446%" stop-color="#8b0611" stop-opacity="1"></stop><stop offset="85.55555555555554%" stop-color="#700b13" stop-opacity="1"></stop></linearGradient></defs><defs><linearGradient id="grad1_4" x1="43.8%" y1="100%" x2="100%" y2="0%"><stop offset="14.444444444444446%" stop-color="#560e13" stop-opacity="1"></stop><stop offset="85.55555555555554%" stop-color="#700b13" stop-opacity="1"></stop></linearGradient></defs><defs><linearGradient id="grad1_5" x1="43.8%" y1="100%" x2="100%" y2="0%"><stop offset="14.444444444444446%" stop-color="#560e13" stop-opacity="1"></stop><stop offset="85.55555555555554%" stop-color="#3d0e10" stop-opacity="1"></stop></linearGradient></defs><defs><linearGradient id="grad1_6" x1="43.8%" y1="100%" x2="100%" y2="0%"><stop offset="14.444444444444446%" stop-color="#250b0a" stop-opacity="1"></stop><stop offset="85.55555555555554%" stop-color="#3d0e10" stop-opacity="1"></stop></linearGradient></defs><defs><linearGradient id="grad1_7" x1="43.8%" y1="100%" x2="100%" y2="0%"><stop offset="14.444444444444446%" stop-color="#250b0a" stop-opacity="1"></stop><stop offset="85.55555555555554%" stop-color="#060000" stop-opacity="1"></stop></linearGradient></defs><defs><linearGradient id="grad2_0" x1="0%" y1="100%" x2="56.3%" y2="0%"><stop offset="14.444444444444446%" stop-color="#bf0000" stop-opacity="1"></stop><stop offset="85.55555555555554%" stop-color="#bf0000" stop-opacity="1"></stop></linearGradient></defs><defs><linearGradient id="grad2_1" x1="0%" y1="100%" x2="56.3%" y2="0%"><stop offset="14.444444444444446%" stop-color="#a5020b" stop-opacity="1"></stop><stop offset="85.55555555555554%" stop-color="#bf0000" stop-opacity="1"></stop></linearGradient></defs><defs><linearGradient id="grad2_2" x1="0%" y1="100%" x2="56.3%" y2="0%"><stop offset="14.444444444444446%" stop-color="#a5020b" stop-opacity="1"></stop><stop offset="85.55555555555554%" stop-color="#8b0611" stop-opacity="1"></stop></linearGradient></defs><defs><linearGradient id="grad2_3" x1="0%" y1="100%" x2="56.3%" y2="0%"><stop offset="14.444444444444446%" stop-color="#700b13" stop-opacity="1"></stop><stop offset="85.55555555555554%" stop-color="#8b0611" stop-opacity="1"></stop></linearGradient></defs><defs><linearGradient id="grad2_4" x1="0%" y1="100%" x2="56.3%" y2="0%"><stop offset="14.444444444444446%" stop-color="#700b13" stop-opacity="1"></stop><stop offset="85.55555555555554%" stop-color="#560e13" stop-opacity="1"></stop></linearGradient></defs><defs><linearGradient id="grad2_5" x1="0%" y1="100%" x2="56.3%" y2="0%"><stop offset="14.444444444444446%" stop-color="#3d0e10" stop-opacity="1"></stop><stop offset="85.55555555555554%" stop-color="#560e13" stop-opacity="1"></stop></linearGradient></defs><defs><linearGradient id="grad2_6" x1="0%" y1="100%" x2="56.3%" y2="0%"><stop offset="14.444444444444446%" stop-color="#3d0e10" stop-opacity="1"></stop><stop offset="85.55555555555554%" stop-color="#250b0a" stop-opacity="1"></stop></linearGradient></defs><defs><linearGradient id="grad2_7" x1="0%" y1="100%" x2="56.3%" y2="0%"><stop offset="14.444444444444446%" stop-color="#060000" stop-opacity="1"></stop><stop offset="85.55555555555554%" stop-color="#250b0a" stop-opacity="1"></stop></linearGradient></defs><g transform="translate(1920, 1080)"><path d="M-702 0C-699 -54.6 -695.9 -109.2 -670.8 -153.1C-645.6 -197 -598.3 -230.1 -576.6 -277.7C-554.9 -325.3 -558.8 -387.4 -530.1 -422.7C-501.3 -458 -440 -466.6 -400.3 -501.9C-360.6 -537.3 -342.7 -599.6 -304.6 -632.5C-266.5 -665.4 -208.3 -668.9 -154.2 -675.6C-100.1 -682.3 -50 -692.2 0 -702L0 0Z" fill="#190605"></path><path d="M-614.2 0C-611.6 -47.8 -608.9 -95.6 -586.9 -134C-564.9 -172.3 -523.5 -201.3 -504.5 -243C-485.6 -284.6 -489 -339 -463.8 -369.9C-438.7 -400.8 -385 -408.2 -350.2 -439.2C-315.5 -470.2 -299.8 -524.6 -266.5 -553.4C-233.2 -582.2 -182.3 -585.3 -134.9 -591.2C-87.6 -597 -43.8 -605.6 0 -614.2L0 0Z" fill="#300e0e"></path><path d="M-526.5 0C-524.2 -41 -521.9 -81.9 -503.1 -114.8C-484.2 -147.7 -448.7 -172.6 -432.5 -208.3C-416.2 -244 -419.1 -290.6 -397.6 -317C-376 -343.5 -330 -349.9 -300.2 -376.5C-270.5 -403 -257 -449.7 -228.4 -474.4C-199.9 -499 -156.2 -501.7 -115.7 -506.7C-75.1 -511.7 -37.5 -519.1 0 -526.5L0 0Z" fill="#490e12"></path><path d="M-438.7 0C-436.8 -34.1 -434.9 -68.3 -419.2 -95.7C-403.5 -123.1 -373.9 -143.8 -360.4 -173.6C-346.8 -203.3 -349.3 -242.1 -331.3 -264.2C-313.3 -286.3 -275 -291.6 -250.2 -313.7C-225.4 -335.8 -214.2 -374.7 -190.4 -395.3C-166.6 -415.9 -130.2 -418.1 -96.4 -422.3C-62.6 -426.4 -31.3 -432.6 0 -438.7L0 0Z" fill="#630d13"></path><path d="M-351 0C-349.5 -27.3 -348 -54.6 -335.4 -76.5C-322.8 -98.5 -299.2 -115 -288.3 -138.8C-277.5 -162.6 -279.4 -193.7 -265 -211.4C-250.7 -229 -220 -233.3 -200.1 -251C-180.3 -268.7 -171.3 -299.8 -152.3 -316.2C-133.3 -332.7 -104.2 -334.5 -77.1 -337.8C-50 -341.2 -25 -346.1 0 -351L0 0Z" fill="#7d0913"></path><path d="M-263.2 0C-262.1 -20.5 -261 -41 -251.5 -57.4C-242.1 -73.9 -224.4 -86.3 -216.2 -104.1C-208.1 -122 -209.6 -145.3 -198.8 -158.5C-188 -171.8 -165 -175 -150.1 -188.2C-135.2 -201.5 -128.5 -224.8 -114.2 -237.2C-99.9 -249.5 -78.1 -250.8 -57.8 -253.4C-37.5 -255.9 -18.8 -259.6 0 -263.2L0 0Z" fill="#98040f"></path><path d="M-175.5 0C-174.7 -13.7 -174 -27.3 -167.7 -38.3C-161.4 -49.2 -149.6 -57.5 -144.2 -69.4C-138.7 -81.3 -139.7 -96.9 -132.5 -105.7C-125.3 -114.5 -110 -116.6 -100.1 -125.5C-90.2 -134.3 -85.7 -149.9 -76.1 -158.1C-66.6 -166.3 -52.1 -167.2 -38.6 -168.9C-25 -170.6 -12.5 -173 0 -175.5L0 0Z" fill="#b20006"></path><path d="M-87.7 0C-87.4 -6.8 -87 -13.7 -83.8 -19.1C-80.7 -24.6 -74.8 -28.8 -72.1 -34.7C-69.4 -40.7 -69.9 -48.4 -66.3 -52.8C-62.7 -57.3 -55 -58.3 -50 -62.7C-45.1 -67.2 -42.8 -74.9 -38.1 -79.1C-33.3 -83.2 -26 -83.6 -19.3 -84.5C-12.5 -85.3 -6.3 -86.5 0 -87.7L0 0Z" fill="#bf0000"></path></g><g transform="translate(0, 0)"><path d="M702 0C688.1 51.7 674.2 103.5 653.2 149.1C632.2 194.7 604.2 234.2 590.1 284.2C576.1 334.2 575.9 394.6 548.8 437.7C521.8 480.8 467.7 506.7 416.5 522.3C365.3 537.8 316.9 543.1 275.5 572.1C234.2 601.1 199.8 653.9 155.1 679.5C110.4 705.1 55.2 703.6 0 702L0 0Z" fill="#190605"></path><path d="M614.3 0C602.1 45.3 589.9 90.5 571.6 130.5C553.2 170.4 528.7 205 516.4 248.7C504.1 292.4 503.9 345.2 480.2 383C456.5 420.7 409.2 443.4 364.4 457C319.6 470.6 277.3 475.2 241.1 500.6C204.9 526 174.9 572.2 135.7 594.6C96.6 617 48.3 615.6 0 614.3L0 0Z" fill="#300e0e"></path><path d="M526.5 0C516.1 38.8 505.6 77.6 489.9 111.8C474.2 146 453.2 175.7 442.6 213.1C432 250.6 431.9 295.9 411.6 328.3C391.3 360.6 350.8 380 312.4 391.7C274 403.4 237.7 407.3 206.6 429.1C175.6 450.9 149.9 490.4 116.3 509.6C82.8 528.8 41.4 527.7 0 526.5L0 0Z" fill="#490e12"></path><path d="M438.8 0C430.1 32.3 421.4 64.7 408.3 93.2C395.1 121.7 377.6 146.4 368.8 177.6C360 208.8 360 246.6 343 273.6C326.1 300.5 292.3 316.7 260.3 326.4C228.3 336.1 198 339.4 172.2 357.6C146.3 375.7 124.9 408.7 96.9 424.7C69 440.7 34.5 439.7 0 438.8L0 0Z" fill="#630d13"></path><path d="M351 0C344 25.9 337.1 51.7 326.6 74.5C316.1 97.4 302.1 117.1 295.1 142.1C288 167.1 288 197.3 274.4 218.8C260.9 240.4 233.9 253.3 208.2 261.1C182.6 268.9 158.4 271.5 137.8 286.1C117.1 300.6 99.9 327 77.5 339.8C55.2 352.6 27.6 351.8 0 351L0 0Z" fill="#7d0913"></path><path d="M263.3 0C258 19.4 252.8 38.8 245 55.9C237.1 73 226.6 87.8 221.3 106.6C216 125.3 216 148 205.8 164.1C195.7 180.3 175.4 190 156.2 195.8C137 201.7 118.8 203.7 103.3 214.5C87.8 225.4 74.9 245.2 58.2 254.8C41.4 264.4 20.7 263.8 0 263.3L0 0Z" fill="#98040f"></path><path d="M175.5 0C172 12.9 168.5 25.9 163.3 37.3C158.1 48.7 151.1 58.6 147.5 71C144 83.5 144 98.6 137.2 109.4C130.4 120.2 116.9 126.7 104.1 130.6C91.3 134.5 79.2 135.8 68.9 143C58.5 150.3 50 163.5 38.8 169.9C27.6 176.3 13.8 175.9 0 175.5L0 0Z" fill="#b20006"></path><path d="M87.8 0C86 6.5 84.3 12.9 81.7 18.6C79 24.3 75.5 29.3 73.8 35.5C72 41.8 72 49.3 68.6 54.7C65.2 60.1 58.5 63.3 52.1 65.3C45.7 67.2 39.6 67.9 34.4 71.5C29.3 75.1 25 81.7 19.4 84.9C13.8 88.1 6.9 87.9 0 87.8L0 0Z" fill="#bf0000"></path></g></svg>