<svg id="visual" viewBox="0 0 1920 1080" width="1920" height="1080" xmlns="http://www.w3.org/2000/svg" xmlns:xlink="http://www.w3.org/1999/xlink" version="1.1"><rect x="0" y="0" width="1920" height="1080" fill="#060000"></rect><path d="M1446 1080L1456.3 1068.8C1466.7 1057.7 1487.3 1035.3 1490.8 1012.8C1494.3 990.3 1480.7 967.7 1485.5 945.2C1490.3 922.7 1513.7 900.3 1525.5 877.8C1537.3 855.3 1537.7 832.7 1533.2 810.2C1528.7 787.7 1519.3 765.3 1519.7 742.8C1520 720.3 1530 697.7 1528.8 675.2C1527.7 652.7 1515.3 630.3 1500.8 607.8C1486.3 585.3 1469.7 562.7 1468.2 540.2C1466.7 517.7 1480.3 495.3 1494.2 472.8C1508 450.3 1522 427.7 1520 405.2C1518 382.7 1500 360.3 1504.2 337.8C1508.3 315.3 1534.7 292.7 1537.7 270.2C1540.7 247.7 1520.3 225.3 1520.5 202.8C1520.7 180.3 1541.3 157.7 1543.8 135.2C1546.3 112.7 1530.7 90.3 1526 67.8C1521.3 45.3 1527.7 22.7 1530.8 11.3L1534 0L1920 0L1920 11.3C1920 22.7 1920 45.3 1920 67.8C1920 90.3 1920 112.7 1920 135.2C1920 157.7 1920 180.3 1920 202.8C1920 225.3 1920 247.7 1920 270.2C1920 292.7 1920 315.3 1920 337.8C1920 360.3 1920 382.7 1920 405.2C1920 427.7 1920 450.3 1920 472.8C1920 495.3 1920 517.7 1920 540.2C1920 562.7 1920 585.3 1920 607.8C1920 630.3 1920 652.7 1920 675.2C1920 697.7 1920 720.3 1920 742.8C1920 765.3 1920 787.7 1920 810.2C1920 832.7 1920 855.3 1920 877.8C1920 900.3 1920 922.7 1920 945.2C1920 967.7 1920 990.3 1920 1012.8C1920 1035.3 1920 1057.7 1920 1068.8L1920 1080Z" fill="#8c0101"></path><path d="M1631 1080L1629.2 1068.8C1627.3 1057.7 1623.7 1035.3 1606.3 1012.8C1589 990.3 1558 967.7 1546 945.2C1534 922.7 1541 900.3 1549.2 877.8C1557.3 855.3 1566.7 832.7 1567.3 810.2C1568 787.7 1560 765.3 1566.2 742.8C1572.3 720.3 1592.7 697.7 1601.3 675.2C1610 652.7 1607 630.3 1598.8 607.8C1590.7 585.3 1577.3 562.7 1567.5 540.2C1557.7 517.7 1551.3 495.3 1547.8 472.8C1544.3 450.3 1543.7 427.7 1551.3 405.2C1559 382.7 1575 360.3 1583 337.8C1591 315.3 1591 292.7 1590.3 270.2C1589.7 247.7 1588.3 225.3 1589 202.8C1589.7 180.3 1592.3 157.7 1587.8 135.2C1583.3 112.7 1571.7 90.3 1565.7 67.8C1559.7 45.3 1559.3 22.7 1559.2 11.3L1559 0L1920 0L1920 11.3C1920 22.7 1920 45.3 1920 67.8C1920 90.3 1920 112.7 1920 135.2C1920 157.7 1920 180.3 1920 202.8C1920 225.3 1920 247.7 1920 270.2C1920 292.7 1920 315.3 1920 337.8C1920 360.3 1920 382.7 1920 405.2C1920 427.7 1920 450.3 1920 472.8C1920 495.3 1920 517.7 1920 540.2C1920 562.7 1920 585.3 1920 607.8C1920 630.3 1920 652.7 1920 675.2C1920 697.7 1920 720.3 1920 742.8C1920 765.3 1920 787.7 1920 810.2C1920 832.7 1920 855.3 1920 877.8C1920 900.3 1920 922.7 1920 945.2C1920 967.7 1920 990.3 1920 1012.8C1920 1035.3 1920 1057.7 1920 1068.8L1920 1080Z" fill="#ae0135"></path><path d="M1622 1080L1629 1068.8C1636 1057.7 1650 1035.3 1654 1012.8C1658 990.3 1652 967.7 1648.7 945.2C1645.3 922.7 1644.7 900.3 1641 877.8C1637.3 855.3 1630.7 832.7 1630.3 810.2C1630 787.7 1636 765.3 1635.5 742.8C1635 720.3 1628 697.7 1632.3 675.2C1636.7 652.7 1652.3 630.3 1654.2 607.8C1656 585.3 1644 562.7 1645.3 540.2C1646.7 517.7 1661.3 495.3 1670.7 472.8C1680 450.3 1684 427.7 1678.8 405.2C1673.7 382.7 1659.3 360.3 1652.3 337.8C1645.3 315.3 1645.7 292.7 1642.7 270.2C1639.7 247.7 1633.3 225.3 1625.7 202.8C1618 180.3 1609 157.7 1617.8 135.2C1626.7 112.7 1653.3 90.3 1660 67.8C1666.7 45.3 1653.3 22.7 1646.7 11.3L1640 0L1920 0L1920 11.3C1920 22.7 1920 45.3 1920 67.8C1920 90.3 1920 112.7 1920 135.2C1920 157.7 1920 180.3 1920 202.8C1920 225.3 1920 247.7 1920 270.2C1920 292.7 1920 315.3 1920 337.8C1920 360.3 1920 382.7 1920 405.2C1920 427.7 1920 450.3 1920 472.8C1920 495.3 1920 517.7 1920 540.2C1920 562.7 1920 585.3 1920 607.8C1920 630.3 1920 652.7 1920 675.2C1920 697.7 1920 720.3 1920 742.8C1920 765.3 1920 787.7 1920 810.2C1920 832.7 1920 855.3 1920 877.8C1920 900.3 1920 922.7 1920 945.2C1920 967.7 1920 990.3 1920 1012.8C1920 1035.3 1920 1057.7 1920 1068.8L1920 1080Z" fill="#c62368"></path><path d="M1730 1080L1729.2 1068.8C1728.3 1057.7 1726.7 1035.3 1717 1012.8C1707.3 990.3 1689.7 967.7 1684.3 945.2C1679 922.7 1686 900.3 1694.2 877.8C1702.3 855.3 1711.7 832.7 1720.2 810.2C1728.7 787.7 1736.3 765.3 1741 742.8C1745.7 720.3 1747.3 697.7 1746.7 675.2C1746 652.7 1743 630.3 1729.2 607.8C1715.3 585.3 1690.7 562.7 1685.8 540.2C1681 517.7 1696 495.3 1708.5 472.8C1721 450.3 1731 427.7 1731.7 405.2C1732.3 382.7 1723.7 360.3 1716.7 337.8C1709.7 315.3 1704.3 292.7 1705.8 270.2C1707.3 247.7 1715.7 225.3 1718.3 202.8C1721 180.3 1718 157.7 1722.7 135.2C1727.3 112.7 1739.7 90.3 1742 67.8C1744.3 45.3 1736.7 22.7 1732.8 11.3L1729 0L1920 0L1920 11.3C1920 22.7 1920 45.3 1920 67.8C1920 90.3 1920 112.7 1920 135.2C1920 157.7 1920 180.3 1920 202.8C1920 225.3 1920 247.7 1920 270.2C1920 292.7 1920 315.3 1920 337.8C1920 360.3 1920 382.7 1920 405.2C1920 427.7 1920 450.3 1920 472.8C1920 495.3 1920 517.7 1920 540.2C1920 562.7 1920 585.3 1920 607.8C1920 630.3 1920 652.7 1920 675.2C1920 697.7 1920 720.3 1920 742.8C1920 765.3 1920 787.7 1920 810.2C1920 832.7 1920 855.3 1920 877.8C1920 900.3 1920 922.7 1920 945.2C1920 967.7 1920 990.3 1920 1012.8C1920 1035.3 1920 1057.7 1920 1068.8L1920 1080Z" fill="#c62368"></path><path d="M1752 1080L1759.5 1068.8C1767 1057.7 1782 1035.3 1786 1012.8C1790 990.3 1783 967.7 1780.3 945.2C1777.7 922.7 1779.3 900.3 1778.7 877.8C1778 855.3 1775 832.7 1772.5 810.2C1770 787.7 1768 765.3 1761.8 742.8C1755.7 720.3 1745.3 697.7 1744.7 675.2C1744 652.7 1753 630.3 1757.8 607.8C1762.7 585.3 1763.3 562.7 1760 540.2C1756.7 517.7 1749.3 495.3 1745.3 472.8C1741.3 450.3 1740.7 427.7 1746.5 405.2C1752.3 382.7 1764.7 360.3 1768.3 337.8C1772 315.3 1767 292.7 1766.7 270.2C1766.3 247.7 1770.7 225.3 1766.2 202.8C1761.7 180.3 1748.3 157.7 1746.8 135.2C1745.3 112.7 1755.7 90.3 1761.3 67.8C1767 45.3 1768 22.7 1768.5 11.3L1769 0L1920 0L1920 11.3C1920 22.7 1920 45.3 1920 67.8C1920 90.3 1920 112.7 1920 135.2C1920 157.7 1920 180.3 1920 202.8C1920 225.3 1920 247.7 1920 270.2C1920 292.7 1920 315.3 1920 337.8C1920 360.3 1920 382.7 1920 405.2C1920 427.7 1920 450.3 1920 472.8C1920 495.3 1920 517.7 1920 540.2C1920 562.7 1920 585.3 1920 607.8C1920 630.3 1920 652.7 1920 675.2C1920 697.7 1920 720.3 1920 742.8C1920 765.3 1920 787.7 1920 810.2C1920 832.7 1920 855.3 1920 877.8C1920 900.3 1920 922.7 1920 945.2C1920 967.7 1920 990.3 1920 1012.8C1920 1035.3 1920 1057.7 1920 1068.8L1920 1080Z" fill="#ae0135"></path><path d="M1856 1080L1851.3 1068.8C1846.7 1057.7 1837.3 1035.3 1831.3 1012.8C1825.3 990.3 1822.7 967.7 1821.7 945.2C1820.7 922.7 1821.3 900.3 1822.2 877.8C1823 855.3 1824 832.7 1828.5 810.2C1833 787.7 1841 765.3 1842 742.8C1843 720.3 1837 697.7 1835 675.2C1833 652.7 1835 630.3 1839.8 607.8C1844.7 585.3 1852.3 562.7 1852 540.2C1851.7 517.7 1843.3 495.3 1840.5 472.8C1837.7 450.3 1840.3 427.7 1842 405.2C1843.7 382.7 1844.3 360.3 1845.8 337.8C1847.3 315.3 1849.7 292.7 1845 270.2C1840.3 247.7 1828.7 225.3 1822.2 202.8C1815.7 180.3 1814.3 157.7 1822.2 135.2C1830 112.7 1847 90.3 1856.8 67.8C1866.7 45.3 1869.3 22.7 1870.7 11.3L1872 0L1920 0L1920 11.3C1920 22.7 1920 45.3 1920 67.8C1920 90.3 1920 112.7 1920 135.2C1920 157.7 1920 180.3 1920 202.8C1920 225.3 1920 247.7 1920 270.2C1920 292.7 1920 315.3 1920 337.8C1920 360.3 1920 382.7 1920 405.2C1920 427.7 1920 450.3 1920 472.8C1920 495.3 1920 517.7 1920 540.2C1920 562.7 1920 585.3 1920 607.8C1920 630.3 1920 652.7 1920 675.2C1920 697.7 1920 720.3 1920 742.8C1920 765.3 1920 787.7 1920 810.2C1920 832.7 1920 855.3 1920 877.8C1920 900.3 1920 922.7 1920 945.2C1920 967.7 1920 990.3 1920 1012.8C1920 1035.3 1920 1057.7 1920 1068.8L1920 1080Z" fill="#8c0101"></path></svg>