
<svg version="1.0" xmlns="http://www.w3.org/2000/svg"
 width="900.000000pt" height="800.000000pt" viewBox="0 0 900.000000 800.000000"
 preserveAspectRatio="xMidYMid meet">

<g transform="translate(0.000000,800.000000) scale(0.100000,-0.100000)"
fill="#953dac" stroke="none">
<path d="M4383 7495 c-45 -12 -138 -56 -192 -90 -9 -6 -47 -28 -86 -49 -38
-22 -88 -51 -110 -65 -74 -48 -80 -51 -105 -63 -14 -7 -48 -27 -77 -45 -29
-18 -74 -44 -100 -58 -26 -14 -64 -35 -83 -47 -19 -11 -53 -31 -75 -43 -22
-12 -82 -46 -133 -76 -52 -30 -122 -69 -155 -88 -34 -19 -64 -37 -67 -40 -7
-9 -41 -30 -67 -41 -12 -5 -52 -27 -88 -50 -37 -22 -69 -40 -72 -40 -2 0 -27
-15 -56 -33 -29 -18 -87 -53 -131 -78 -43 -24 -99 -56 -125 -70 -25 -15 -70
-39 -98 -55 -29 -15 -53 -32 -53 -36 0 -4 -6 -8 -13 -8 -8 0 -40 -17 -73 -38
-32 -20 -70 -43 -84 -50 -56 -29 -85 -45 -90 -51 -5 -6 -28 -20 -130 -76 -105
-58 -125 -70 -130 -77 -3 -4 -17 -12 -30 -17 -14 -6 -38 -20 -55 -30 -67 -41
-103 -61 -160 -91 -33 -18 -74 -43 -92 -56 -17 -13 -35 -24 -39 -24 -17 0
-112 -112 -137 -162 -67 -132 -61 9 -65 -1703 -2 -1139 0 -1570 8 -1625 15
-93 65 -204 113 -251 21 -20 37 -41 37 -47 0 -16 74 -61 570 -347 256 -147
591 -341 745 -430 154 -89 397 -230 540 -312 143 -82 395 -228 560 -323 165
-96 321 -182 347 -192 113 -43 255 -42 368 2 25 10 212 114 415 232 204 118
521 301 705 408 184 106 445 257 580 335 135 78 337 195 450 260 626 361 609
349 681 459 22 33 49 89 62 125 l22 66 3 1550 c2 1092 0 1573 -8 1627 -24 167
-103 273 -285 384 -55 34 -113 68 -130 76 -43 21 -79 42 -85 49 -3 4 -25 18
-50 31 -25 13 -56 31 -70 40 -42 27 -154 88 -172 94 -10 4 -18 11 -18 16 0 5
-4 7 -9 3 -5 -3 -12 -1 -15 4 -5 8 -34 26 -141 87 -138 78 -203 116 -215 124
-8 6 -24 14 -35 20 -11 5 -42 23 -70 40 -27 16 -62 35 -77 41 -16 6 -28 15
-28 19 0 4 -12 13 -27 19 -16 7 -44 22 -65 34 -34 20 -104 62 -188 110 -19 11
-48 28 -65 37 -16 9 -49 28 -72 43 -24 15 -47 27 -51 27 -5 0 -20 8 -33 19
-13 10 -53 34 -89 53 -88 46 -114 62 -120 70 -3 4 -35 22 -71 41 -35 19 -82
45 -104 59 -22 13 -47 28 -55 31 -8 4 -37 21 -65 37 -27 17 -59 35 -70 41 -11
5 -37 19 -57 32 -21 12 -79 46 -130 75 -51 29 -100 57 -108 62 -128 81 -185
101 -310 106 -64 3 -112 -1 -147 -11z m547 -1510 c98 -18 254 -59 350 -93 71
-25 246 -104 290 -131 19 -11 46 -26 60 -33 14 -7 31 -18 38 -25 7 -7 20 -13
28 -13 8 0 14 -4 14 -8 0 -4 15 -16 33 -27 17 -10 50 -33 73 -52 23 -18 44
-33 49 -33 4 0 16 -11 27 -25 11 -14 23 -25 28 -25 16 0 300 -291 300 -308 0
-3 8 -15 19 -26 33 -37 151 -217 151 -231 0 -7 -17 -23 -37 -35 -21 -12 -130
-77 -243 -143 -558 -327 -570 -334 -570 -309 0 11 -62 106 -72 110 -5 2 -8 10
-8 18 0 8 -44 58 -98 111 -172 173 -342 268 -577 324 -70 17 -285 15 -370 -4
-83 -18 -200 -60 -269 -94 -63 -32 -186 -114 -186 -124 0 -4 -16 -17 -35 -29
-19 -12 -57 -49 -85 -83 -27 -34 -55 -67 -60 -74 -6 -7 -10 -16 -10 -22 0 -5
-6 -11 -13 -14 -22 -8 -115 -206 -141 -299 -74 -260 -48 -516 76 -765 28 -57
54 -103 57 -103 3 0 12 -12 18 -27 18 -40 123 -153 196 -211 121 -97 252 -161
413 -203 128 -33 359 -33 489 1 197 50 353 138 495 280 l85 85 402 -240 c221
-132 402 -244 402 -249 2 -18 -138 -186 -233 -281 -602 -599 -1523 -753 -2281
-381 -220 107 -390 230 -563 404 -142 144 -323 395 -380 528 -12 28 -34 80
-51 115 -16 35 -34 80 -40 99 -33 109 -43 145 -66 245 -65 289 -56 630 26 940
40 152 127 357 204 483 25 41 45 77 45 82 0 5 4 10 8 12 5 2 28 32 53 67 24
36 51 73 59 83 57 67 84 97 150 166 42 42 95 93 119 112 24 19 50 42 59 50 8
8 23 19 32 25 9 5 64 41 121 80 97 65 152 95 289 158 171 79 327 121 605 161
73 10 434 -3 525 -19z m1358 -1685 l-3 -90 133 0 132 0 0 90 0 90 110 0 110 0
0 -90 0 -90 88 0 87 0 -2 -107 -2 -108 -85 0 -86 0 0 -132 0 -132 88 -3 87 -3
0 -105 0 -105 -87 -3 -88 -3 0 -89 0 -90 -110 0 -110 0 0 90 0 90 -132 0 -133
0 0 -87 0 -88 -107 -3 -108 -3 0 91 0 90 -90 0 -90 0 0 110 0 110 90 0 90 0 0
133 0 132 -87 0 -88 0 -3 108 -3 107 91 0 90 0 0 90 0 90 111 0 111 0 -4 -90z"/>
<path d="M6290 3995 c0 0 -2 -60 -3 -133 l-2 -132 133 0 132 0 0 133 0 132
-130 0 c-71 0 -130 0 -130 0z"/>
</g>
</svg>
